<svg width="48" height="48" viewBox="0 0 48 48" fill="none" xmlns="http://www.w3.org/2000/svg">
<path d="M48 24C48 37.2548 37.2548 48 24 48C10.7452 48 0 37.2548 0 24C0 10.7452 10.7452 0 24 0C37.2548 0 48 10.7452 48 24Z" fill="#DB5375"/>
<path fill-rule="evenodd" clip-rule="evenodd" d="M12.578 40.358C15.8135 42.6214 19.7517 43.9494 24 43.9494C33.7716 43.9494 41.9022 36.9239 43.6165 27.6485L35.8789 26.169L30.9943 24.9633C31.3149 26.8493 31.5257 28.7938 31.5257 30.6842C31.5257 32.4398 31.3706 33.8355 31.0346 34.8976C30.711 35.9209 30.0785 37.0465 28.8293 37.4986C27.5878 37.9479 26.483 37.4614 25.8629 37.0671C25.2035 36.6477 24.6602 36.0731 24.2711 35.5702L24.1848 35.4587L24.1149 35.3364C22.5892 32.6689 19.8623 28.6968 17.0076 25.4139C15.5788 23.7708 14.1679 22.3585 12.903 21.3744C11.6993 20.4381 10.8999 20.1065 10.4876 20.0436C10.4176 20.1609 10.3116 20.3882 10.2105 20.7838C9.93056 21.8797 9.85604 23.5761 9.98632 25.691C10.2432 29.861 11.2433 34.9461 12.1236 38.3837L12.626 40.3457L12.578 40.358ZM30.0536 20.5589L36.7453 22.2107L43.9452 23.5874C43.8984 21.281 43.4602 19.0708 42.6943 17.0204L42.3161 16.9315C39.6965 16.3159 35.6315 15.4793 32.151 14.8491C30.6769 14.5821 29.3261 14.3556 28.2442 14.199C28.3462 14.5464 28.4557 14.911 28.5734 15.3031C28.7934 16.0359 29.0423 16.8648 29.3254 17.8577C29.5653 18.6993 29.8138 19.6061 30.0536 20.5589ZM40.1616 12.3022C36.5364 7.30244 30.648 4.05063 24 4.05063C12.9823 4.05063 4.05063 12.9823 4.05063 24C4.05063 27.9239 5.18354 31.5833 7.1401 34.6688C6.58787 31.8513 6.11551 28.735 5.94335 25.9401C5.80611 23.7121 5.84582 21.504 6.28591 19.7812C6.50593 18.9199 6.86791 18.007 7.50862 17.2785C8.20824 16.4831 9.18342 15.9813 10.349 15.9813C12.1507 15.9813 13.9286 17.0403 15.3902 18.1773C16.9436 19.3858 18.5483 21.0127 20.0642 22.756C22.9334 26.0555 25.6636 29.9807 27.3496 32.8409C27.4237 32.3201 27.475 31.6166 27.475 30.6842C27.475 26.8178 26.4395 22.5089 25.43 18.9684C25.1956 18.1464 24.94 17.291 24.7062 16.5089C24.4758 15.7381 24.2667 15.0386 24.1202 14.5123C23.9622 13.9443 23.8196 13.3851 23.7482 12.9217C23.7141 12.7005 23.6774 12.3886 23.7011 12.0605C23.715 11.8693 23.7827 10.9573 24.6178 10.3576C24.9761 10.1003 25.3304 10.0182 25.4599 9.99053C25.6325 9.95356 25.7895 9.93897 25.9027 9.932C26.1315 9.91792 26.3727 9.92451 26.5902 9.93668C27.036 9.9616 27.5968 10.0231 28.216 10.1055C29.4656 10.2716 31.1071 10.5435 32.8727 10.8632C35.2366 11.2913 37.8692 11.8134 40.1616 12.3022ZM27.056 33.9612C27.0558 33.9608 27.059 33.9551 27.0661 33.9454C27.0597 33.9568 27.0562 33.9616 27.056 33.9612ZM28.0891 33.6788C28.0892 33.6792 28.084 33.677 28.0731 33.6709C28.0835 33.6754 28.0889 33.6784 28.0891 33.6788ZM24 48C37.2548 48 48 37.2548 48 24C48 10.7452 37.2548 0 24 0C10.7452 0 0 10.7452 0 24C0 37.2548 10.7452 48 24 48Z" fill="#FBC6C7"/>
</svg>
